<svg width="30" height="30" viewBox="0 0 30 30" fill="none" xmlns="http://www.w3.org/2000/svg">
<path d="M21.261 26.2438L8.76102 26.2556C6.01102 26.2582 3.75914 24.0107 3.75602 21.2607L3.74414 8.76065C3.74164 6.01065 5.98914 3.75878 8.73914 3.75565L21.2391 3.74378C23.9891 3.74128 26.241 5.98878 26.2441 8.73878L26.256 21.2388C26.2591 23.9894 24.011 26.2413 21.261 26.2438Z" fill="url(#paint0_radial_11656_95430)"/>
<path d="M21.261 26.2438L8.76102 26.2556C6.01102 26.2581 3.75914 24.0107 3.75602 21.2607L3.74414 8.76065C3.74164 6.01065 5.98914 3.75878 8.73914 3.75565L21.2391 3.74378C23.9891 3.74128 26.241 5.98878 26.2441 8.73878L26.256 21.2388C26.2591 23.9894 24.011 26.2413 21.261 26.2438Z" fill="url(#paint1_radial_11656_95430)"/>
<path d="M15 19.375C12.5881 19.375 10.625 17.4125 10.625 15C10.625 12.5875 12.5881 10.625 15 10.625C17.4119 10.625 19.375 12.5875 19.375 15C19.375 17.4125 17.4119 19.375 15 19.375ZM15 11.875C13.2769 11.875 11.875 13.2769 11.875 15C11.875 16.7231 13.2769 18.125 15 18.125C16.7231 18.125 18.125 16.7231 18.125 15C18.125 13.2769 16.7231 11.875 15 11.875Z" fill="white"/>
<path d="M19.6875 11.25C20.2053 11.25 20.625 10.8303 20.625 10.3125C20.625 9.79473 20.2053 9.375 19.6875 9.375C19.1697 9.375 18.75 9.79473 18.75 10.3125C18.75 10.8303 19.1697 11.25 19.6875 11.25Z" fill="white"/>
<path d="M18.75 23.125H11.25C8.83812 23.125 6.875 21.1625 6.875 18.75V11.25C6.875 8.8375 8.83812 6.875 11.25 6.875H18.75C21.1619 6.875 23.125 8.8375 23.125 11.25V18.75C23.125 21.1625 21.1619 23.125 18.75 23.125ZM11.25 8.125C9.52687 8.125 8.125 9.52687 8.125 11.25V18.75C8.125 20.4731 9.52687 21.875 11.25 21.875H18.75C20.4731 21.875 21.875 20.4731 21.875 18.75V11.25C21.875 9.52687 20.4731 8.125 18.75 8.125H11.25Z" fill="white"/>
<defs>
<radialGradient id="paint0_radial_11656_95430" cx="0" cy="0" r="1" gradientUnits="userSpaceOnUse" gradientTransform="translate(12.1129 26.2719) scale(28.0619 28.0619)">
<stop stop-color="#FFDD55"/>
<stop offset="0.328" stop-color="#FF543F"/>
<stop offset="0.348" stop-color="#FC5245"/>
<stop offset="0.504" stop-color="#E64771"/>
<stop offset="0.643" stop-color="#D53E91"/>
<stop offset="0.761" stop-color="#CC39A4"/>
<stop offset="0.841" stop-color="#C837AB"/>
</radialGradient>
<radialGradient id="paint1_radial_11656_95430" cx="0" cy="0" r="1" gradientUnits="userSpaceOnUse" gradientTransform="translate(7.36664 3.46272) scale(18.6331 12.4152)">
<stop stop-color="#4168C9"/>
<stop offset="0.999" stop-color="#4168C9" stop-opacity="0"/>
</radialGradient>
</defs>
</svg>
