<svg width="30" height="30" viewBox="0 0 30 30" fill="none" xmlns="http://www.w3.org/2000/svg">
<path d="M28.8161 6.8875C27.8467 7.31688 26.8042 7.60313 25.7042 7.73875C26.8223 7.075 27.683 6.01625 28.0867 4.765C27.0405 5.37813 25.8811 5.82875 24.648 6.06625C23.663 5.0225 22.258 4.375 20.7017 4.375C17.7123 4.375 15.2886 6.77688 15.2886 9.73875C15.2886 10.1581 15.338 10.5663 15.4298 10.9625C10.9323 10.7369 6.94297 8.59875 4.27422 5.35375C3.80547 6.14688 3.54172 7.075 3.54172 8.055C3.54172 9.91687 4.49484 11.5563 5.94859 12.5219C5.06109 12.495 4.22609 12.2481 3.49484 11.8519C3.49484 11.8681 3.49484 11.8919 3.49484 11.915C3.49484 14.5169 5.36109 16.6838 7.83484 17.1769C7.38297 17.3006 6.90484 17.3694 6.41234 17.3694C6.06297 17.3694 5.72234 17.33 5.39234 17.2706C6.08109 19.3969 8.07922 20.9513 10.4467 20.9975C8.59422 22.4338 6.26109 23.2938 3.72422 23.2938C3.28609 23.2938 2.85734 23.2687 2.43359 23.2175C4.83172 24.7356 7.67734 25.625 10.7323 25.625C20.6867 25.625 26.133 17.4506 26.133 10.3587C26.133 10.1262 26.1255 9.895 26.1148 9.66625C27.1773 8.91562 28.093 7.96938 28.8161 6.8875Z" fill="url(#paint0_linear_11656_95425)"/>
<defs>
<linearGradient id="paint0_linear_11656_95425" x1="6.46359" y1="5.195" x2="25.4992" y2="24.2306" gradientUnits="userSpaceOnUse">
<stop stop-color="#2AA4F4"/>
<stop offset="1" stop-color="#007AD9"/>
</linearGradient>
</defs>
</svg>
