<?xml version="1.0" standalone="no"?>
<!DOCTYPE svg PUBLIC "-//W3C//DTD SVG 20010904//EN"
 "http://www.w3.org/TR/2001/REC-SVG-20010904/DTD/svg10.dtd">
<svg version="1.0" xmlns="http://www.w3.org/2000/svg"
 width="240.000000pt" height="240.000000pt" viewBox="0 0 240.000000 240.000000"
 preserveAspectRatio="xMidYMid meet">
<metadata>
Created by potrace 1.14, written by Peter Selinger 2001-2017
</metadata>
<g transform="translate(0.000000,240.000000) scale(0.100000,-0.100000)"
fill="#000000" stroke="none">
<path d="M255 2071 c-2 -9 -4 -123 -4 -253 1 -213 3 -238 18 -239 9 -1 272 -2
586 -3 507 -1 574 -3 603 -18 17 -9 32 -12 32 -8 0 13 119 -58 158 -94 18 -17
47 -51 63 -75 33 -47 81 -166 72 -175 -3 -3 -1 -11 5 -19 7 -8 10 -49 7 -113
-5 -132 -5 -134 -57 -242 -28 -60 -126 -172 -151 -172 -6 0 -18 -6 -26 -14
-18 -16 -96 -44 -149 -53 -21 -3 -160 -6 -311 -7 l-274 -1 -49 -65 c-27 -36
-60 -78 -74 -95 -51 -63 -164 -219 -164 -227 0 -5 -4 -7 -9 -4 -5 4 -12 0 -14
-6 -3 -7 -6 132 -6 309 -1 205 3 324 9 328 6 3 10 2 10 -4 0 -10 31 -7 50 4 6
3 10 2 10 -4 0 -10 19 -9 38 2 7 5 12 3 12 -3 0 -8 6 -7 21 1 12 6 24 7 28 3
7 -11 41 -15 41 -5 0 4 9 7 20 7 11 0 20 -3 20 -7 0 -9 20 -6 37 4 6 4 14 3
17 -2 7 -10 25 -9 41 1 6 4 17 3 25 -2 7 -4 24 -4 37 1 12 5 23 5 23 1 0 -10
42 -8 58 2 7 4 12 3 12 -1 0 -10 41 -10 58 1 7 4 12 4 12 -1 0 -10 62 -9 78 1
7 4 12 4 12 -1 0 -9 57 -9 66 0 3 3 13 3 22 0 10 -4 13 -2 8 5 -4 7 -2 12 4
12 9 0 130 79 165 108 6 4 25 17 43 27 17 11 32 23 32 27 0 4 5 8 10 8 17 0
95 60 95 73 0 6 -12 18 -27 25 -16 7 -28 17 -28 22 0 5 -9 12 -20 15 -11 3
-26 12 -32 18 -12 11 -94 69 -154 107 -12 8 -41 28 -62 43 l-40 28 -408 0
c-225 0 -453 0 -506 -1 l-98 0 0 -45 c0 -36 4 -45 18 -46 9 0 224 -2 477 -3
253 -2 463 -4 467 -4 14 -3 29 -43 23 -62 -6 -19 -65 -56 -65 -40 0 4 -12 6
-28 4 -15 -3 -36 -4 -47 -4 -23 1 -83 1 -105 0 -8 -1 -33 1 -55 3 -22 2 -46 0
-52 -6 -7 -5 -13 -6 -13 -1 0 5 -26 8 -57 7 -71 -3 -68 -3 -123 -3 -25 0 -52
0 -60 0 -8 0 -82 0 -165 1 -82 0 -164 0 -181 0 l-32 -1 -1 -60 -1 -60 98 0
c678 -2 862 -4 870 -9 19 -11 23 -55 8 -76 -14 -19 -27 -20 -493 -20 l-478 0
-2 -413 -2 -412 102 0 c416 -2 1118 1 1147 5 19 2 49 8 65 11 17 4 39 8 50 10
56 8 190 55 207 72 7 7 18 12 24 12 14 0 121 69 162 104 98 83 204 220 233
300 7 20 17 36 21 36 4 0 7 3 6 8 -1 4 4 19 9 33 21 48 41 127 36 133 -4 3 -2
6 4 6 5 0 10 6 11 13 1 6 4 30 6 52 3 22 5 40 6 40 10 0 14 238 5 305 -8 63
-14 95 -16 98 -1 1 -3 7 -4 12 -1 6 -4 11 -5 13 -1 1 -4 11 -5 22 -4 32 -47
149 -57 156 -5 3 -10 9 -9 12 0 10 -29 78 -40 91 -5 6 -23 32 -40 58 -46 71
-155 178 -242 236 -42 29 -79 52 -82 51 -3 0 -25 8 -48 19 -45 21 -123 47
-172 56 -16 4 -41 9 -55 12 -14 3 -37 7 -51 8 -15 2 -32 7 -39 11 -9 6 -11 4
-5 -5 6 -10 4 -11 -6 -4 -8 5 -273 9 -611 10 -533 0 -598 -1 -603 -15z"/>
</g>
</svg>
