<svg width="25" height="25" viewBox="0 0 25 25" fill="none" xmlns="http://www.w3.org/2000/svg">
<path d="M12.5 25C19.4036 25 25 19.4036 25 12.5C25 5.59644 19.4036 0 12.5 0C5.59644 0 0 5.59644 0 12.5C0 19.4036 5.59644 25 12.5 25Z" fill="#20847D"/>
<path fill-rule="evenodd" clip-rule="evenodd" d="M14.4487 15.6152C14.2406 15.7474 13.9801 15.7664 13.755 15.6659C13.3087 15.4184 12.495 14.8277 11.3662 13.699C10.2375 12.5702 9.59437 11.7021 9.34499 11.2615C9.24445 11.0364 9.26346 10.7759 9.39562 10.5677L10.0444 9.4315C10.2769 9.02837 10.3294 8.77337 10.0762 8.3815L8.40937 5.82963C7.93499 5.07963 7.69312 5.11338 7.28437 5.30088C5.15812 6.26838 4.32749 7.63712 7.34437 12.4015C8.15812 13.6859 10.6444 16.4046 12.765 17.7809C17.3062 20.7302 18.8006 19.8434 19.6875 17.7809C19.875 17.3646 19.9575 17.1227 19.2431 16.6559L16.6631 15.0152C16.2712 14.764 16.08 14.6984 15.675 14.9327L14.4487 15.6152Z" fill="white"/>
</svg>
