<svg width="30" height="30" viewBox="0 0 30 30" fill="none" xmlns="http://www.w3.org/2000/svg">
<path fill-rule="evenodd" clip-rule="evenodd" d="M23.6549 6.1625C21.2956 3.80187 18.1574 2.50125 14.8181 2.5C7.93307 2.5 2.32932 8.10125 2.32619 14.9869C2.32557 17.0912 2.85682 19.165 3.86432 21.0006L2.24869 26.9C2.18994 27.1156 2.24994 27.3456 2.40744 27.5044C2.52619 27.6244 2.68682 27.69 2.85182 27.69C2.90494 27.69 2.95807 27.6831 3.01057 27.6694L9.06495 26.0819C10.8324 26.9994 12.8137 27.4837 14.8131 27.4844C21.7031 27.4844 27.3068 21.8825 27.3099 14.9969C27.3112 11.66 26.0131 8.5225 23.6549 6.1625Z" fill="url(#paint0_linear_11656_95441)"/>
<path fill-rule="evenodd" clip-rule="evenodd" d="M21.7941 8.02003C19.9316 6.15628 17.456 5.12941 14.821 5.12878C9.38098 5.12878 4.9566 9.55128 4.9541 14.9875C4.95348 16.8507 5.47473 18.6644 6.46223 20.235L6.69723 20.6082L5.70035 24.2463L9.43348 23.2675L9.7941 23.4813C11.3079 24.38 13.0441 24.855 14.8141 24.8557H14.8179C20.2541 24.8557 24.6785 20.4325 24.6804 14.9957C24.681 12.3613 23.6566 9.88378 21.7941 8.02003Z" fill="url(#paint1_linear_11656_95441)"/>
<path opacity="0.05" fill-rule="evenodd" clip-rule="evenodd" d="M18.058 21.1744C17.4361 21.1744 16.5868 21.0156 14.8786 20.3425C12.9661 19.5875 11.0874 17.9487 9.58863 15.7275L9.54051 15.6569C9.13926 15.1213 8.20801 13.715 8.20801 12.2194C8.20801 10.6069 9.01301 9.74875 9.35676 9.38187L9.40988 9.325C9.88426 8.80563 10.443 8.75 10.6611 8.75C10.8918 8.7525 11.0874 8.75 11.2568 8.7575C11.6655 8.77375 12.1311 8.89187 12.4668 9.63812C12.623 9.98687 12.8893 10.6413 13.0974 11.1544C13.2305 11.4838 13.3386 11.7513 13.3718 11.8225C13.5555 12.1888 13.5643 12.5519 13.3943 12.8937L13.3536 12.9769C13.2736 13.1406 13.1905 13.31 13.0136 13.5162L12.8668 13.6925C12.7655 13.8156 12.6636 13.9381 12.573 14.0331C12.8161 14.4337 13.3268 15.1931 14.0299 15.8206C14.9011 16.5963 15.6474 16.9206 16.048 17.095C16.1274 17.1294 16.1936 17.1587 16.2461 17.1838C16.4993 16.89 16.9161 16.3894 17.0599 16.175C17.5411 15.4525 18.233 15.7031 18.4599 15.7862C18.8155 15.915 20.5368 16.7712 20.5536 16.7794L20.713 16.8575C20.9749 16.9844 21.2211 17.1038 21.3768 17.3625C21.6236 17.7756 21.4868 18.6581 21.2561 19.3031C20.9224 20.2425 19.4886 21.0562 18.7224 21.125L18.5811 21.14C18.4155 21.1594 18.2474 21.1744 18.058 21.1744ZM10.7599 10C10.6724 10 10.5193 9.96375 10.3311 10.1688L10.268 10.2369C9.98488 10.5387 9.45738 11.1013 9.45738 12.2194C9.45738 13.3713 10.2861 14.5675 10.5399 14.9069C10.5568 14.9294 10.5843 14.97 10.6243 15.0281C11.9836 17.0425 13.6574 18.5169 15.3374 19.1794C17.4524 20.0138 17.9955 19.9506 18.4349 19.8987L18.6086 19.88C18.9893 19.8456 19.9349 19.2856 20.078 18.8838C20.2086 18.5181 20.2505 18.2044 20.2574 18.025C20.2299 18.0119 20.1999 17.9981 20.168 17.9831L19.9911 17.8963C19.593 17.6963 18.2543 17.0425 18.0343 16.9619C17.758 17.3419 17.2455 17.94 17.1099 18.0956C16.8555 18.3875 16.4055 18.6637 15.7168 18.3169C15.6755 18.2962 15.6193 18.2725 15.5493 18.2419C15.1174 18.0538 14.218 17.6631 13.1974 16.7544C12.2793 15.935 11.6511 14.9394 11.4236 14.5487C11.1455 14.0731 11.2224 13.6144 11.6524 13.1862C11.7274 13.1112 11.813 13.0044 11.9005 12.8988L12.0643 12.7025C12.138 12.6169 12.1649 12.5612 12.2311 12.4269L12.253 12.3825C12.1955 12.255 12.0793 11.9706 11.9393 11.6244C11.7374 11.1263 11.4793 10.49 11.3274 10.1513C11.2868 10.0613 11.2561 10.0169 11.2411 9.99812C11.2443 10.0075 11.223 10.0081 11.2049 10.0069C11.0661 10 10.9143 10 10.7599 10Z" fill="black"/>
<path opacity="0.07" fill-rule="evenodd" clip-rule="evenodd" d="M18.0555 20.865C17.5268 20.865 16.7086 20.7275 14.9936 20.0513C13.1393 19.32 11.3118 17.7219 9.84801 15.5525L9.79363 15.4725C9.40863 14.9588 8.52051 13.6212 8.52051 12.2187C8.52051 10.73 9.26613 9.935 9.58488 9.595L9.64051 9.535C10.0311 9.10812 10.4849 9.0625 10.6618 9.0625C10.8974 9.06438 11.0786 9.0625 11.2436 9.07C11.5511 9.0825 11.9043 9.1475 12.1824 9.76625C12.338 10.1125 12.6018 10.7625 12.808 11.2719C12.9486 11.6187 13.0611 11.8981 13.0905 11.9575C13.1418 12.0606 13.3018 12.3787 13.1149 12.7544L13.073 12.8394C12.9949 12.9987 12.9274 13.1369 12.7761 13.3131L12.6249 13.4938C12.5168 13.625 12.4086 13.7556 12.3149 13.8494C12.1799 13.9838 12.1799 13.9837 12.2336 14.0756C12.4386 14.4275 13.0036 15.3244 13.8218 16.0538C14.7299 16.8631 15.5068 17.2 15.9236 17.3812C16.0136 17.42 16.0855 17.4519 16.1386 17.4788C16.3218 17.57 16.3405 17.5513 16.4055 17.4775C16.5855 17.2725 17.1355 16.625 17.3199 16.3481C17.6661 15.8294 18.113 15.9919 18.3536 16.0787C18.6699 16.1937 20.253 16.9769 20.4136 17.0575L20.5774 17.1375C20.8149 17.2525 21.0024 17.3431 21.1099 17.5212C21.2686 17.7875 21.203 18.5231 20.963 19.1969C20.658 20.0538 19.3093 20.7575 18.6955 20.8125L18.5461 20.8288C18.4005 20.8463 18.2474 20.865 18.0555 20.865ZM10.7505 9.6875C10.7343 9.6875 10.718 9.6875 10.7018 9.6875C10.5874 9.6875 10.3299 9.70688 10.1005 9.9575L10.0399 10.0225C9.74926 10.3325 9.14488 10.9775 9.14488 12.2187C9.14488 13.4331 9.94551 14.6337 10.2899 15.0938C10.3055 15.1144 10.3299 15.15 10.3655 15.2025C11.7599 17.2687 13.4849 18.7838 15.223 19.47C17.4136 20.3337 18.0011 20.2644 18.4711 20.2094L18.638 20.1912C19.0711 20.1525 20.1699 19.5581 20.373 18.9881C20.5811 18.4056 20.5899 17.9194 20.558 17.815C20.5624 17.8187 20.413 17.7537 20.3049 17.7013L20.1324 17.6163C19.743 17.4206 18.3786 16.7531 18.1399 16.6663C17.9149 16.585 17.9143 16.5831 17.8399 16.695C17.6218 17.0206 17.0149 17.7306 16.8761 17.8888C16.4749 18.3481 16.0111 18.1131 15.858 18.0363C15.813 18.0138 15.7511 17.9875 15.6749 17.9544C15.2574 17.7725 14.3893 17.395 13.4061 16.5194C12.5211 15.7306 11.9143 14.7675 11.6943 14.39C11.3968 13.8812 11.7311 13.5481 11.8736 13.4063C11.9549 13.325 12.0486 13.2106 12.143 13.0956L12.3024 12.9044C12.4018 12.7881 12.4436 12.7031 12.5124 12.5625L12.5561 12.4731C12.5868 12.4119 12.5924 12.355 12.5311 12.2337C12.4986 12.1687 12.378 11.8725 12.2293 11.5044C12.0255 11.0025 11.7661 10.3613 11.6124 10.0206C11.4693 9.7025 11.3855 9.69875 11.2174 9.6925C11.073 9.6875 10.913 9.6875 10.7505 9.6875Z" fill="black"/>
<path fill-rule="evenodd" clip-rule="evenodd" d="M11.8964 9.89439C11.6745 9.40064 11.4408 9.39064 11.2289 9.38189C11.0558 9.37439 10.8583 9.37501 10.6608 9.37501C10.4633 9.37501 10.142 9.44939 9.87016 9.74626C9.59828 10.0431 8.83203 10.76 8.83203 12.2188C8.83203 13.6775 9.89453 15.0875 10.0427 15.285C10.1908 15.4825 12.0939 18.5719 15.1077 19.7606C17.612 20.7481 18.122 20.5519 18.6658 20.5025C19.2095 20.4531 20.4202 19.7856 20.667 19.0931C20.9139 18.4006 20.9139 17.8075 20.8402 17.6838C20.7658 17.56 20.5683 17.4863 20.272 17.3375C19.9758 17.1888 18.5177 16.4719 18.2458 16.3731C17.9739 16.2744 17.7764 16.225 17.5783 16.5219C17.3808 16.8181 16.8127 17.4863 16.6395 17.6838C16.4664 17.8819 16.2933 17.9069 15.997 17.7581C15.7008 17.6094 14.7458 17.2969 13.6127 16.2869C12.7314 15.5013 12.1364 14.5306 11.9633 14.2338C11.7902 13.9375 11.9445 13.7769 12.0933 13.6288C12.2264 13.4956 12.3895 13.2825 12.5383 13.1094C12.6864 12.9363 12.7358 12.8125 12.8345 12.615C12.9333 12.4169 12.8839 12.2438 12.8095 12.0956C12.7364 11.9469 12.1602 10.4806 11.8964 9.89439Z" fill="white"/>
<defs>
<linearGradient id="paint0_linear_11656_95441" x1="4.19869" y1="8.00062" x2="21.9356" y2="25.7375" gradientUnits="userSpaceOnUse">
<stop stop-color="#DFE9F2"/>
<stop offset="0.391" stop-color="#D6E0E9"/>
<stop offset="1" stop-color="#BFC8D1"/>
</linearGradient>
<linearGradient id="paint1_linear_11656_95441" x1="9.61785" y1="6.70378" x2="18.0391" y2="24.5407" gradientUnits="userSpaceOnUse">
<stop stop-color="#2ECC75"/>
<stop offset="1" stop-color="#0B964A"/>
</linearGradient>
</defs>
</svg>
